<svg xmlns="http://www.w3.org/2000/svg" xmlns:xlink="http://www.w3.org/1999/xlink" version="1.1" x="0px" y="0px" viewBox="0 0 80 100" enable-background="new 0 0 80 80" xml:space="preserve"><g><path fill="#000000" d="M55.479,59L22.519,59c-3.773,0-7.086-2.385-8.244-5.935c-0.883-2.709-1.311-5.54-1.273-8.415   c0.19-14.435,12.343-26.118,26.901-25.635C53.977,19.497,65,30.911,65,45c0,2.708-0.415,5.378-1.233,7.934   C62.605,56.562,59.274,59,55.479,59z M39.025,21c-13.075,0-23.851,10.621-24.023,23.676c-0.035,2.655,0.36,5.269,1.174,7.769   C17.065,55.169,19.614,57,22.519,57L55.479,57c2.923,0,5.488-1.879,6.383-4.676C62.617,49.965,63,47.501,63,45   c0-13.006-10.175-23.542-23.165-23.986C39.564,21.005,39.295,21,39.025,21z"/></g><g><path fill="#000000" d="M42.146,51.218c-1.757,1.757-4.607,1.757-6.364,0s-1.757-4.607,0-6.364s12.728-7.778,13.435-7.071   S43.904,49.46,42.146,51.218z M39,46c-1.105,0-2,0.895-2,2s0.895,2,2,2s2-0.895,2-2S40.105,46,39,46z"/></g><text x="0" y="95" fill="#000000" font-size="5px" font-weight="bold" font-family="'Helvetica Neue', Helvetica, Arial-Unicode, Arial, Sans-serif">Created by Yaroslav Samoylov</text><text x="0" y="100" fill="#000000" font-size="5px" font-weight="bold" font-family="'Helvetica Neue', Helvetica, Arial-Unicode, Arial, Sans-serif">from the Noun Project</text></svg>